<svg width="1084" height="659" viewBox="0 0 1084 659" fill="none" xmlns="http://www.w3.org/2000/svg">
<path d="M147.25 166C140.417 159.167 133.583 153.5 126.75 149C119.917 144.5 113.417 140.917 107.25 138.25C101.083 135.583 95.5 133.667 90.5 132.5C85.6667 131.333 81.8333 130.75 79 130.75C73.3333 144.75 70.5 158.667 70.5 172.5C70.5 186.833 73.3333 200.333 79 213C84.6667 225.667 92.5833 236.75 102.75 246.25C113.083 255.75 125.333 263.333 139.5 269C153.833 274.5 169.5 277.333 186.5 277.5C174.167 288.167 162.667 295.75 152 300.25C141.333 304.75 130.417 307 119.25 307C106.083 307 93.75 304.333 82.25 299C70.75 293.667 60.75 286.333 52.25 277C43.75 267.667 37 256.75 32 244.25C27.1667 231.75 24.75 218.25 24.75 203.75C24.75 189.25 27.1667 175.75 32 163.25C37 150.75 43.75 139.917 52.25 130.75C60.9167 121.417 71 114.167 82.5 109C94 103.667 106.417 101 119.75 101C134.083 101 147.417 104.167 159.75 110.5C172.25 116.833 183.583 126.167 193.75 138.5L147.25 166ZM344.176 237.25C344.176 246.917 342.342 256 338.676 264.5C335.176 273 330.259 280.417 323.926 286.75C317.759 293.083 310.426 298.083 301.926 301.75C293.426 305.417 284.259 307.25 274.426 307.25C264.592 307.25 255.426 305.417 246.926 301.75C238.592 298.083 231.259 293.083 224.926 286.75C218.759 280.417 213.842 273 210.176 264.5C206.676 256 204.926 246.917 204.926 237.25C204.926 227.583 206.676 218.5 210.176 210C213.842 201.5 218.759 194.083 224.926 187.75C231.259 181.417 238.592 176.417 246.926 172.75C255.426 169.083 264.592 167.25 274.426 167.25C284.259 167.25 293.426 169.083 301.926 172.75C310.426 176.417 317.759 181.417 323.926 187.75C330.259 194.083 335.176 201.5 338.676 210C342.342 218.5 344.176 227.583 344.176 237.25ZM306.676 269C306.676 259.833 305.009 251.167 301.676 243C298.342 234.667 293.759 227 287.926 220C282.259 213 275.592 206.917 267.926 201.75C260.426 196.417 252.342 192.167 243.676 189C242.342 194.833 241.676 200.417 241.676 205.75C241.676 214.917 243.342 223.667 246.676 232C250.009 240.167 254.509 247.75 260.176 254.75C265.842 261.583 272.509 267.667 280.176 273C287.842 278.167 296.009 282.333 304.676 285.5C306.009 279.667 306.676 274.167 306.676 269ZM546.174 304V230.25C546.174 226.083 545.424 222.167 543.924 218.5C542.591 214.667 540.591 211.417 537.924 208.75C535.257 205.917 532.007 203.667 528.174 202C524.341 200.333 520.091 199.5 515.424 199.5V276.25L536.674 304H464.924V230.25C464.924 226.083 464.174 222.167 462.674 218.5C461.34 214.667 459.34 211.417 456.674 208.75C454.007 205.917 450.757 203.667 446.924 202C443.09 200.333 438.84 199.5 434.174 199.5V276.25L455.424 304H362.924L383.924 276.25V206.5L368.674 191.25L414.424 164L429.174 188.5L469.924 164.25C477.924 166.417 484.924 169.917 490.924 174.75C497.09 179.583 502.09 185.167 505.924 191.5L551.174 164.25C558.007 166.083 564.174 169 569.674 173C575.341 177 580.174 181.667 584.174 187C588.174 192.333 591.257 198.25 593.424 204.75C595.591 211.083 596.674 217.583 596.674 224.25V276.25L617.924 304H546.174ZM699.066 142.25H648.816V104H699.066V142.25ZM720.316 304H627.816L648.816 276.25V218.75L632.816 202.5L699.066 163.25V276.25L720.316 304ZM836.105 304V230.25C836.105 226.083 835.189 222.167 833.355 218.5C831.689 214.667 829.272 211.417 826.105 208.75C823.105 205.917 819.522 203.667 815.355 202C811.189 200.333 806.689 199.5 801.855 199.5H801.605V276.25L822.855 304H730.355L751.355 276.25V206.5L736.105 191.25L781.855 164L796.605 188.5L837.105 164.25C844.439 165.75 851.105 168.5 857.105 172.5C863.272 176.333 868.522 180.917 872.855 186.25C877.189 191.583 880.522 197.5 882.855 204C885.355 210.5 886.605 217.25 886.605 224.25V276.25L907.855 304H836.105ZM1054.36 209C1055.19 212 1055.94 215.25 1056.61 218.75C1057.44 222.25 1057.86 225.667 1057.86 229C1057.86 237.833 1056.11 246 1052.61 253.5C1049.27 260.833 1044.69 267.25 1038.86 272.75C1033.19 278.25 1026.52 282.667 1018.86 286C1011.19 289.167 1003.11 290.917 994.605 291.25L989.855 297.75C1000.19 299.25 1009.11 301.583 1016.61 304.75C1024.11 307.917 1030.27 311.583 1035.11 315.75C1040.11 320.083 1043.77 324.75 1046.11 329.75C1048.61 334.75 1049.86 339.833 1049.86 345C1049.86 350.667 1048.61 356.083 1046.11 361.25C1043.61 366.583 1039.86 371.25 1034.86 375.25C1030.02 379.25 1023.86 382.417 1016.36 384.75C1009.02 387.25 1000.44 388.5 990.605 388.5C980.772 388.5 970.772 387.167 960.605 384.5C950.439 381.833 940.772 378.333 931.605 374L960.355 344.5L1025.86 365.25C1023.19 357.083 1018.27 350.5 1011.11 345.5C1003.94 340.667 995.772 336.917 986.605 334.25C977.605 331.583 968.272 329.75 958.605 328.75C948.939 327.917 940.272 327.5 932.605 327.5L966.855 286.25C961.022 284.083 955.605 281.167 950.605 277.5C945.772 273.667 941.522 269.333 937.855 264.5C934.355 259.5 931.605 254 929.605 248C927.605 242 926.605 235.667 926.605 229C926.605 219.667 928.439 211.25 932.105 203.75C935.772 196.083 940.689 189.583 946.855 184.25C953.022 178.75 960.105 174.583 968.105 171.75C976.272 168.75 984.772 167.25 993.605 167.25C1000.44 167.25 1007.61 167.833 1015.11 169C1022.61 170 1029.94 171.667 1037.11 174C1044.44 176.333 1051.36 179.333 1057.86 183C1064.52 186.667 1070.44 191.167 1075.61 196.5L1054.36 209ZM1021.61 257C1021.61 248.5 1019.94 240.583 1016.61 233.25C1013.44 225.75 1009.11 219 1003.61 213C998.272 207 992.105 201.75 985.105 197.25C978.105 192.75 970.772 189.167 963.105 186.5C962.439 189 962.022 191.5 961.855 194C961.855 196.333 961.855 198.75 961.855 201.25C961.855 209.75 963.439 217.75 966.605 225.25C969.939 232.583 974.272 239.25 979.605 245.25C985.105 251.25 991.355 256.5 998.355 261C1005.52 265.5 1012.86 269.083 1020.36 271.75C1021.02 269.417 1021.36 267 1021.36 264.5C1021.52 262 1021.61 259.5 1021.61 257Z" fill="#0C4682"/>
<path d="M136.25 142C129.417 135.167 122.583 129.5 115.75 125C108.917 120.5 102.417 116.917 96.25 114.25C90.0833 111.583 84.5 109.667 79.5 108.5C74.6667 107.333 70.8333 106.75 68 106.75C62.3333 120.75 59.5 134.667 59.5 148.5C59.5 162.833 62.3333 176.333 68 189C73.6667 201.667 81.5833 212.75 91.75 222.25C102.083 231.75 114.333 239.333 128.5 245C142.833 250.5 158.5 253.333 175.5 253.5C163.167 264.167 151.667 271.75 141 276.25C130.333 280.75 119.417 283 108.25 283C95.0833 283 82.75 280.333 71.25 275C59.75 269.667 49.75 262.333 41.25 253C32.75 243.667 26 232.75 21 220.25C16.1667 207.75 13.75 194.25 13.75 179.75C13.75 165.25 16.1667 151.75 21 139.25C26 126.75 32.75 115.917 41.25 106.75C49.9167 97.4167 60 90.1667 71.5 85C83 79.6667 95.4167 77 108.75 77C123.083 77 136.417 80.1667 148.75 86.5C161.25 92.8333 172.583 102.167 182.75 114.5L136.25 142ZM333.176 213.25C333.176 222.917 331.342 232 327.676 240.5C324.176 249 319.259 256.417 312.926 262.75C306.759 269.083 299.426 274.083 290.926 277.75C282.426 281.417 273.259 283.25 263.426 283.25C253.592 283.25 244.426 281.417 235.926 277.75C227.592 274.083 220.259 269.083 213.926 262.75C207.759 256.417 202.842 249 199.176 240.5C195.676 232 193.926 222.917 193.926 213.25C193.926 203.583 195.676 194.5 199.176 186C202.842 177.5 207.759 170.083 213.926 163.75C220.259 157.417 227.592 152.417 235.926 148.75C244.426 145.083 253.592 143.25 263.426 143.25C273.259 143.25 282.426 145.083 290.926 148.75C299.426 152.417 306.759 157.417 312.926 163.75C319.259 170.083 324.176 177.5 327.676 186C331.342 194.5 333.176 203.583 333.176 213.25ZM295.676 245C295.676 235.833 294.009 227.167 290.676 219C287.342 210.667 282.759 203 276.926 196C271.259 189 264.592 182.917 256.926 177.75C249.426 172.417 241.342 168.167 232.676 165C231.342 170.833 230.676 176.417 230.676 181.75C230.676 190.917 232.342 199.667 235.676 208C239.009 216.167 243.509 223.75 249.176 230.75C254.842 237.583 261.509 243.667 269.176 249C276.842 254.167 285.009 258.333 293.676 261.5C295.009 255.667 295.676 250.167 295.676 245ZM535.174 280V206.25C535.174 202.083 534.424 198.167 532.924 194.5C531.591 190.667 529.591 187.417 526.924 184.75C524.257 181.917 521.007 179.667 517.174 178C513.341 176.333 509.091 175.5 504.424 175.5V252.25L525.674 280H453.924V206.25C453.924 202.083 453.174 198.167 451.674 194.5C450.34 190.667 448.34 187.417 445.674 184.75C443.007 181.917 439.757 179.667 435.924 178C432.09 176.333 427.84 175.5 423.174 175.5V252.25L444.424 280H351.924L372.924 252.25V182.5L357.674 167.25L403.424 140L418.174 164.5L458.924 140.25C466.924 142.417 473.924 145.917 479.924 150.75C486.09 155.583 491.09 161.167 494.924 167.5L540.174 140.25C547.007 142.083 553.174 145 558.674 149C564.341 153 569.174 157.667 573.174 163C577.174 168.333 580.257 174.25 582.424 180.75C584.591 187.083 585.674 193.583 585.674 200.25V252.25L606.924 280H535.174ZM688.066 118.25H637.816V80H688.066V118.25ZM709.316 280H616.816L637.816 252.25V194.75L621.816 178.5L688.066 139.25V252.25L709.316 280ZM825.105 280V206.25C825.105 202.083 824.189 198.167 822.355 194.5C820.689 190.667 818.272 187.417 815.105 184.75C812.105 181.917 808.522 179.667 804.355 178C800.189 176.333 795.689 175.5 790.855 175.5H790.605V252.25L811.855 280H719.355L740.355 252.25V182.5L725.105 167.25L770.855 140L785.605 164.5L826.105 140.25C833.439 141.75 840.105 144.5 846.105 148.5C852.272 152.333 857.522 156.917 861.855 162.25C866.189 167.583 869.522 173.5 871.855 180C874.355 186.5 875.605 193.25 875.605 200.25V252.25L896.855 280H825.105ZM1043.36 185C1044.19 188 1044.94 191.25 1045.61 194.75C1046.44 198.25 1046.86 201.667 1046.86 205C1046.86 213.833 1045.11 222 1041.61 229.5C1038.27 236.833 1033.69 243.25 1027.86 248.75C1022.19 254.25 1015.52 258.667 1007.86 262C1000.19 265.167 992.105 266.917 983.605 267.25L978.855 273.75C989.189 275.25 998.105 277.583 1005.61 280.75C1013.11 283.917 1019.27 287.583 1024.11 291.75C1029.11 296.083 1032.77 300.75 1035.11 305.75C1037.61 310.75 1038.86 315.833 1038.86 321C1038.86 326.667 1037.61 332.083 1035.11 337.25C1032.61 342.583 1028.86 347.25 1023.86 351.25C1019.02 355.25 1012.86 358.417 1005.36 360.75C998.022 363.25 989.439 364.5 979.605 364.5C969.772 364.5 959.772 363.167 949.605 360.5C939.439 357.833 929.772 354.333 920.605 350L949.355 320.5L1014.86 341.25C1012.19 333.083 1007.27 326.5 1000.11 321.5C992.939 316.667 984.772 312.917 975.605 310.25C966.605 307.583 957.272 305.75 947.605 304.75C937.939 303.917 929.272 303.5 921.605 303.5L955.855 262.25C950.022 260.083 944.605 257.167 939.605 253.5C934.772 249.667 930.522 245.333 926.855 240.5C923.355 235.5 920.605 230 918.605 224C916.605 218 915.605 211.667 915.605 205C915.605 195.667 917.439 187.25 921.105 179.75C924.772 172.083 929.689 165.583 935.855 160.25C942.022 154.75 949.105 150.583 957.105 147.75C965.272 144.75 973.772 143.25 982.605 143.25C989.439 143.25 996.605 143.833 1004.11 145C1011.61 146 1018.94 147.667 1026.11 150C1033.44 152.333 1040.36 155.333 1046.86 159C1053.52 162.667 1059.44 167.167 1064.61 172.5L1043.36 185ZM1010.61 233C1010.61 224.5 1008.94 216.583 1005.61 209.25C1002.44 201.75 998.105 195 992.605 189C987.272 183 981.105 177.75 974.105 173.25C967.105 168.75 959.772 165.167 952.105 162.5C951.439 165 951.022 167.5 950.855 170C950.855 172.333 950.855 174.75 950.855 177.25C950.855 185.75 952.439 193.75 955.605 201.25C958.939 208.583 963.272 215.25 968.605 221.25C974.105 227.25 980.355 232.5 987.355 237C994.522 241.5 1001.86 245.083 1009.36 247.75C1010.02 245.417 1010.36 243 1010.36 240.5C1010.52 238 1010.61 235.5 1010.61 233Z" fill="white"/>
<path d="M297 460.25L247.75 431.5C246.75 435 246.25 438.083 246.25 440.75C246.25 444.583 247.25 448.167 249.25 451.5C251.417 454.833 254.083 458 257.25 461C260.417 463.833 263.75 466.5 267.25 469C270.75 471.333 273.917 473.417 276.75 475.25C283.917 479.917 291.417 484.833 299.25 490C307.083 495 314.333 500.583 321 506.75C327.667 512.917 333.167 519.917 337.5 527.75C341.833 535.417 344 544.167 344 554C344 562.833 342.083 570.917 338.25 578.25C334.583 585.583 329.583 591.833 323.25 597C317.083 602.167 309.917 606.167 301.75 609C293.583 611.833 285 613.25 276 613.25C263.333 613.25 250.417 611.333 237.25 607.5C224.083 603.667 211 597.25 198 588.25L248.25 558.25L300.25 592.75C302.25 589.417 303.583 586.5 304.25 584C305.083 581.333 305.5 578.75 305.5 576.25C305.5 572.583 304.5 569 302.5 565.5C300.5 562 298 558.667 295 555.5C292.167 552.333 289 549.417 285.5 546.75C282.167 544.083 279.167 541.75 276.5 539.75C270 535.083 263 530.083 255.5 524.75C248.167 519.417 241.25 513.667 234.75 507.5C228.417 501.167 223.083 494.333 218.75 487C214.583 479.5 212.5 471.333 212.5 462.5C212.5 453.833 214.083 445.917 217.25 438.75C220.583 431.583 225.167 425.5 231 420.5C237 415.333 244 411.333 252 408.5C260.167 405.667 269 404.25 278.5 404.25C291.5 404.25 303.167 406.667 313.5 411.5C323.833 416.167 334.5 422.667 345.5 431L297 460.25ZM513.48 541.25C513.48 550.917 511.647 560 507.98 568.5C504.48 577 499.564 584.417 493.23 590.75C487.064 597.083 479.73 602.083 471.23 605.75C462.73 609.417 453.564 611.25 443.73 611.25C433.897 611.25 424.73 609.417 416.23 605.75C407.897 602.083 400.564 597.083 394.23 590.75C388.064 584.417 383.147 577 379.48 568.5C375.98 560 374.23 550.917 374.23 541.25C374.23 531.583 375.98 522.5 379.48 514C383.147 505.5 388.064 498.083 394.23 491.75C400.564 485.417 407.897 480.417 416.23 476.75C424.73 473.083 433.897 471.25 443.73 471.25C453.564 471.25 462.73 473.083 471.23 476.75C479.73 480.417 487.064 485.417 493.23 491.75C499.564 498.083 504.48 505.5 507.98 514C511.647 522.5 513.48 531.583 513.48 541.25ZM475.98 573C475.98 563.833 474.314 555.167 470.98 547C467.647 538.667 463.064 531 457.23 524C451.564 517 444.897 510.917 437.23 505.75C429.73 500.417 421.647 496.167 412.98 493C411.647 498.833 410.98 504.417 410.98 509.75C410.98 518.917 412.647 527.667 415.98 536C419.314 544.167 423.814 551.75 429.48 558.75C435.147 565.583 441.814 571.667 449.48 577C457.147 582.167 465.314 586.333 473.98 589.5C475.314 583.667 475.98 578.167 475.98 573ZM680.229 541.25C680.229 550.917 678.395 560 674.729 568.5C671.229 577 666.312 584.417 659.979 590.75C653.812 597.083 646.479 602.083 637.979 605.75C629.479 609.417 620.312 611.25 610.479 611.25C600.645 611.25 591.479 609.417 582.979 605.75C574.645 602.083 567.312 597.083 560.979 590.75C554.812 584.417 549.895 577 546.229 568.5C542.729 560 540.979 550.917 540.979 541.25C540.979 531.583 542.729 522.5 546.229 514C549.895 505.5 554.812 498.083 560.979 491.75C567.312 485.417 574.645 480.417 582.979 476.75C591.479 473.083 600.645 471.25 610.479 471.25C620.312 471.25 629.479 473.083 637.979 476.75C646.479 480.417 653.812 485.417 659.979 491.75C666.312 498.083 671.229 505.5 674.729 514C678.395 522.5 680.229 531.583 680.229 541.25ZM642.729 573C642.729 563.833 641.062 555.167 637.729 547C634.395 538.667 629.812 531 623.979 524C618.312 517 611.645 510.917 603.979 505.75C596.479 500.417 588.395 496.167 579.729 493C578.395 498.833 577.729 504.417 577.729 509.75C577.729 518.917 579.395 527.667 582.729 536C586.062 544.167 590.562 551.75 596.229 558.75C601.895 565.583 608.562 571.667 616.229 577C623.895 582.167 632.062 586.333 640.729 589.5C642.062 583.667 642.729 578.167 642.729 573ZM804.727 608V534.25C804.727 530.083 803.81 526.167 801.977 522.5C800.31 518.667 797.893 515.417 794.727 512.75C791.727 509.917 788.143 507.667 783.977 506C779.81 504.333 775.31 503.5 770.477 503.5H770.227V580.25L791.477 608H698.977L719.977 580.25V510.5L704.727 495.25L750.477 468L765.227 492.5L805.727 468.25C813.06 469.75 819.727 472.5 825.727 476.5C831.893 480.333 837.143 484.917 841.477 490.25C845.81 495.583 849.143 501.5 851.477 508C853.977 514.5 855.227 521.25 855.227 528.25V580.25L876.477 608H804.727Z" fill="#0C4682"/>
<path d="M286 436.25L236.75 407.5C235.75 411 235.25 414.083 235.25 416.75C235.25 420.583 236.25 424.167 238.25 427.5C240.417 430.833 243.083 434 246.25 437C249.417 439.833 252.75 442.5 256.25 445C259.75 447.333 262.917 449.417 265.75 451.25C272.917 455.917 280.417 460.833 288.25 466C296.083 471 303.333 476.583 310 482.75C316.667 488.917 322.167 495.917 326.5 503.75C330.833 511.417 333 520.167 333 530C333 538.833 331.083 546.917 327.25 554.25C323.583 561.583 318.583 567.833 312.25 573C306.083 578.167 298.917 582.167 290.75 585C282.583 587.833 274 589.25 265 589.25C252.333 589.25 239.417 587.333 226.25 583.5C213.083 579.667 200 573.25 187 564.25L237.25 534.25L289.25 568.75C291.25 565.417 292.583 562.5 293.25 560C294.083 557.333 294.5 554.75 294.5 552.25C294.5 548.583 293.5 545 291.5 541.5C289.5 538 287 534.667 284 531.5C281.167 528.333 278 525.417 274.5 522.75C271.167 520.083 268.167 517.75 265.5 515.75C259 511.083 252 506.083 244.5 500.75C237.167 495.417 230.25 489.667 223.75 483.5C217.417 477.167 212.083 470.333 207.75 463C203.583 455.5 201.5 447.333 201.5 438.5C201.5 429.833 203.083 421.917 206.25 414.75C209.583 407.583 214.167 401.5 220 396.5C226 391.333 233 387.333 241 384.5C249.167 381.667 258 380.25 267.5 380.25C280.5 380.25 292.167 382.667 302.5 387.5C312.833 392.167 323.5 398.667 334.5 407L286 436.25ZM502.48 517.25C502.48 526.917 500.647 536 496.98 544.5C493.48 553 488.564 560.417 482.23 566.75C476.064 573.083 468.73 578.083 460.23 581.75C451.73 585.417 442.564 587.25 432.73 587.25C422.897 587.25 413.73 585.417 405.23 581.75C396.897 578.083 389.564 573.083 383.23 566.75C377.064 560.417 372.147 553 368.48 544.5C364.98 536 363.23 526.917 363.23 517.25C363.23 507.583 364.98 498.5 368.48 490C372.147 481.5 377.064 474.083 383.23 467.75C389.564 461.417 396.897 456.417 405.23 452.75C413.73 449.083 422.897 447.25 432.73 447.25C442.564 447.25 451.73 449.083 460.23 452.75C468.73 456.417 476.064 461.417 482.23 467.75C488.564 474.083 493.48 481.5 496.98 490C500.647 498.5 502.48 507.583 502.48 517.25ZM464.98 549C464.98 539.833 463.314 531.167 459.98 523C456.647 514.667 452.064 507 446.23 500C440.564 493 433.897 486.917 426.23 481.75C418.73 476.417 410.647 472.167 401.98 469C400.647 474.833 399.98 480.417 399.98 485.75C399.98 494.917 401.647 503.667 404.98 512C408.314 520.167 412.814 527.75 418.48 534.75C424.147 541.583 430.814 547.667 438.48 553C446.147 558.167 454.314 562.333 462.98 565.5C464.314 559.667 464.98 554.167 464.98 549ZM669.229 517.25C669.229 526.917 667.395 536 663.729 544.5C660.229 553 655.312 560.417 648.979 566.75C642.812 573.083 635.479 578.083 626.979 581.75C618.479 585.417 609.312 587.25 599.479 587.25C589.645 587.25 580.479 585.417 571.979 581.75C563.645 578.083 556.312 573.083 549.979 566.75C543.812 560.417 538.895 553 535.229 544.5C531.729 536 529.979 526.917 529.979 517.25C529.979 507.583 531.729 498.5 535.229 490C538.895 481.5 543.812 474.083 549.979 467.75C556.312 461.417 563.645 456.417 571.979 452.75C580.479 449.083 589.645 447.25 599.479 447.25C609.312 447.25 618.479 449.083 626.979 452.75C635.479 456.417 642.812 461.417 648.979 467.75C655.312 474.083 660.229 481.5 663.729 490C667.395 498.5 669.229 507.583 669.229 517.25ZM631.729 549C631.729 539.833 630.062 531.167 626.729 523C623.395 514.667 618.812 507 612.979 500C607.312 493 600.645 486.917 592.979 481.75C585.479 476.417 577.395 472.167 568.729 469C567.395 474.833 566.729 480.417 566.729 485.75C566.729 494.917 568.395 503.667 571.729 512C575.062 520.167 579.562 527.75 585.229 534.75C590.895 541.583 597.562 547.667 605.229 553C612.895 558.167 621.062 562.333 629.729 565.5C631.062 559.667 631.729 554.167 631.729 549ZM793.727 584V510.25C793.727 506.083 792.81 502.167 790.977 498.5C789.31 494.667 786.893 491.417 783.727 488.75C780.727 485.917 777.143 483.667 772.977 482C768.81 480.333 764.31 479.5 759.477 479.5H759.227V556.25L780.477 584H687.977L708.977 556.25V486.5L693.727 471.25L739.477 444L754.227 468.5L794.727 444.25C802.06 445.75 808.727 448.5 814.727 452.5C820.893 456.333 826.143 460.917 830.477 466.25C834.81 471.583 838.143 477.5 840.477 484C842.977 490.5 844.227 497.25 844.227 504.25V556.25L865.477 584H793.727Z" fill="white"/>
</svg>
