<svg width="1084" height="354" viewBox="0 0 1084 354" fill="none" xmlns="http://www.w3.org/2000/svg">
<path d="M154.25 310.75L89.75 212.25V276.25L111 304H18.5L39.5 276.25V131.75L18.5 104H112C123.333 104 133.583 105.75 142.75 109.25C151.917 112.583 159.75 117.083 166.25 122.75C172.75 128.417 177.75 134.917 181.25 142.25C184.75 149.583 186.5 157.083 186.5 164.75C186.5 175.25 183.167 185 176.5 194C170 203 159.917 210.25 146.25 215.75L176.5 262.25L203.25 281.5L154.25 310.75ZM137.75 184.5C137.75 178 136.5 171.75 134 165.75C131.5 159.583 128.083 154 123.75 149C119.417 144 114.333 139.833 108.5 136.5C102.667 133 96.4167 130.75 89.75 129.75V189.75L131.5 206.75C133.667 203.25 135.25 199.667 136.25 196C137.25 192.167 137.75 188.333 137.75 184.5ZM280.139 262.5C294.472 276 312.305 284.917 333.639 289.25C326.805 295.083 319.472 299.583 311.639 302.75C303.805 305.75 295.389 307.25 286.389 307.25C276.555 307.25 267.389 305.417 258.889 301.75C250.555 298.083 243.222 293.083 236.889 286.75C230.722 280.417 225.805 273 222.139 264.5C218.639 256 216.889 246.917 216.889 237.25C216.889 227.583 218.639 218.5 222.139 210C225.805 201.5 230.722 194.083 236.889 187.75C243.222 181.417 250.555 176.417 258.889 172.75C267.389 169.083 276.555 167.25 286.389 167.25C293.389 167.25 300.722 168.833 308.389 172C316.222 175 323.389 179.5 329.889 185.5C336.389 191.5 341.722 198.917 345.889 207.75C350.055 216.583 352.139 226.667 352.139 238L280.139 262.5ZM304.389 242C304.389 231 302.139 222.083 297.639 215.25C293.305 208.417 288.305 203.083 282.639 199.25C276.972 195.417 271.555 192.833 266.389 191.5C261.389 190 258.139 189.083 256.639 188.75C255.305 195.083 254.639 200.75 254.639 205.75C254.639 208.583 254.639 211.5 254.639 214.5C254.639 217.333 255.055 220.167 255.889 223L304.389 242ZM601.574 176.5L521.824 311.25L480.824 237.5L437.074 311.25L383.824 215.75L364.574 198.75L410.574 164L453.324 240.5L468.074 215.5L449.324 198.75L495.324 164L538.074 240.5L559.824 203.75L536.824 176.5H601.574ZM680.268 142.25H630.018V104H680.268V142.25ZM701.518 304H609.018L630.018 276.25V218.75L614.018 202.5L680.268 163.25V276.25L701.518 304ZM817.307 304V230.25C817.307 226.083 816.39 222.167 814.557 218.5C812.89 214.667 810.473 211.417 807.307 208.75C804.307 205.917 800.723 203.667 796.557 202C792.39 200.333 787.89 199.5 783.057 199.5H782.807V276.25L804.057 304H711.557L732.557 276.25V206.5L717.307 191.25L763.057 164L777.807 188.5L818.307 164.25C825.64 165.75 832.307 168.5 838.307 172.5C844.473 176.333 849.723 180.917 854.057 186.25C858.39 191.583 861.723 197.5 864.057 204C866.557 210.5 867.807 217.25 867.807 224.25V276.25L889.057 304H817.307ZM1009.06 310.5L992.557 282.5L945.807 310.5C933.14 300.667 923.64 289.083 917.307 275.75C910.973 262.417 907.807 249.083 907.807 235.75C907.807 226.583 909.223 217.833 912.057 209.5C914.89 201.167 919.307 193.833 925.307 187.5C931.307 181.167 938.89 176.167 948.057 172.5C957.39 168.667 968.473 166.75 981.307 166.75C982.64 166.75 983.973 166.833 985.307 167C986.64 167 987.973 167 989.307 167V134.25L973.307 118L1039.56 78.75V267.75L1054.81 283L1009.06 310.5ZM989.307 211L944.557 189.25C942.39 195.083 941.307 200.917 941.307 206.75C941.307 213.583 942.557 220.167 945.057 226.5C947.723 232.833 951.223 238.75 955.557 244.25C960.057 249.75 965.14 254.667 970.807 259C976.64 263.333 982.807 266.917 989.307 269.75V211Z" fill="#0C4682"/>
<path d="M143.25 286.75L78.75 188.25V252.25L100 280H7.5L28.5 252.25V107.75L7.5 80H101C112.333 80 122.583 81.75 131.75 85.25C140.917 88.5833 148.75 93.0833 155.25 98.75C161.75 104.417 166.75 110.917 170.25 118.25C173.75 125.583 175.5 133.083 175.5 140.75C175.5 151.25 172.167 161 165.5 170C159 179 148.917 186.25 135.25 191.75L165.5 238.25L192.25 257.5L143.25 286.75ZM126.75 160.5C126.75 154 125.5 147.75 123 141.75C120.5 135.583 117.083 130 112.75 125C108.417 120 103.333 115.833 97.5 112.5C91.6667 109 85.4167 106.75 78.75 105.75V165.75L120.5 182.75C122.667 179.25 124.25 175.667 125.25 172C126.25 168.167 126.75 164.333 126.75 160.5ZM269.139 238.5C283.472 252 301.305 260.917 322.639 265.25C315.805 271.083 308.472 275.583 300.639 278.75C292.805 281.75 284.389 283.25 275.389 283.25C265.555 283.25 256.389 281.417 247.889 277.75C239.555 274.083 232.222 269.083 225.889 262.75C219.722 256.417 214.805 249 211.139 240.5C207.639 232 205.889 222.917 205.889 213.25C205.889 203.583 207.639 194.5 211.139 186C214.805 177.5 219.722 170.083 225.889 163.75C232.222 157.417 239.555 152.417 247.889 148.75C256.389 145.083 265.555 143.25 275.389 143.25C282.389 143.25 289.722 144.833 297.389 148C305.222 151 312.389 155.5 318.889 161.5C325.389 167.5 330.722 174.917 334.889 183.75C339.055 192.583 341.139 202.667 341.139 214L269.139 238.5ZM293.389 218C293.389 207 291.139 198.083 286.639 191.25C282.305 184.417 277.305 179.083 271.639 175.25C265.972 171.417 260.555 168.833 255.389 167.5C250.389 166 247.139 165.083 245.639 164.75C244.305 171.083 243.639 176.75 243.639 181.75C243.639 184.583 243.639 187.5 243.639 190.5C243.639 193.333 244.055 196.167 244.889 199L293.389 218ZM590.574 152.5L510.824 287.25L469.824 213.5L426.074 287.25L372.824 191.75L353.574 174.75L399.574 140L442.324 216.5L457.074 191.5L438.324 174.75L484.324 140L527.074 216.5L548.824 179.75L525.824 152.5H590.574ZM669.268 118.25H619.018V80H669.268V118.25ZM690.518 280H598.018L619.018 252.25V194.75L603.018 178.5L669.268 139.25V252.25L690.518 280ZM806.307 280V206.25C806.307 202.083 805.39 198.167 803.557 194.5C801.89 190.667 799.473 187.417 796.307 184.75C793.307 181.917 789.723 179.667 785.557 178C781.39 176.333 776.89 175.5 772.057 175.5H771.807V252.25L793.057 280H700.557L721.557 252.25V182.5L706.307 167.25L752.057 140L766.807 164.5L807.307 140.25C814.64 141.75 821.307 144.5 827.307 148.5C833.473 152.333 838.723 156.917 843.057 162.25C847.39 167.583 850.723 173.5 853.057 180C855.557 186.5 856.807 193.25 856.807 200.25V252.25L878.057 280H806.307ZM998.057 286.5L981.557 258.5L934.807 286.5C922.14 276.667 912.64 265.083 906.307 251.75C899.973 238.417 896.807 225.083 896.807 211.75C896.807 202.583 898.223 193.833 901.057 185.5C903.89 177.167 908.307 169.833 914.307 163.5C920.307 157.167 927.89 152.167 937.057 148.5C946.39 144.667 957.473 142.75 970.307 142.75C971.64 142.75 972.973 142.833 974.307 143C975.64 143 976.973 143 978.307 143V110.25L962.307 94L1028.56 54.75V243.75L1043.81 259L998.057 286.5ZM978.307 187L933.557 165.25C931.39 171.083 930.307 176.917 930.307 182.75C930.307 189.583 931.557 196.167 934.057 202.5C936.723 208.833 940.223 214.75 944.557 220.25C949.057 225.75 954.14 230.667 959.807 235C965.64 239.333 971.807 242.917 978.307 245.75V187Z" fill="white"/>
</svg>
