<svg width="663" height="224" viewBox="0 0 663 224" fill="none" xmlns="http://www.w3.org/2000/svg">
<path d="M92.678 187.236L53.978 128.136V166.536L66.728 183.186H11.228L23.828 166.536V79.8364L11.228 63.1864H67.328C74.128 63.1864 80.278 64.2364 85.778 66.3364C91.278 68.3364 95.978 71.0364 99.878 74.4364C103.778 77.8364 106.778 81.7364 108.878 86.1364C110.978 90.5364 112.028 95.0364 112.028 99.6364C112.028 105.936 110.028 111.786 106.028 117.186C102.128 122.586 96.078 126.936 87.878 130.236L106.028 158.136L122.078 169.686L92.678 187.236ZM82.778 111.486C82.778 107.586 82.028 103.836 80.528 100.236C79.028 96.5364 76.978 93.1864 74.378 90.1864C71.778 87.1864 68.728 84.6864 65.228 82.6864C61.728 80.5864 57.978 79.2364 53.978 78.6364V114.636L79.028 124.836C80.328 122.736 81.278 120.586 81.878 118.386C82.478 116.086 82.778 113.786 82.778 111.486ZM168.211 158.286C176.811 166.386 187.511 171.736 200.311 174.336C196.211 177.836 191.811 180.536 187.111 182.436C182.411 184.236 177.361 185.136 171.961 185.136C166.061 185.136 160.561 184.036 155.461 181.836C150.461 179.636 146.061 176.636 142.261 172.836C138.561 169.036 135.611 164.586 133.411 159.486C131.311 154.386 130.261 148.936 130.261 143.136C130.261 137.336 131.311 131.886 133.411 126.786C135.611 121.686 138.561 117.236 142.261 113.436C146.061 109.636 150.461 106.636 155.461 104.436C160.561 102.236 166.061 101.136 171.961 101.136C176.161 101.136 180.561 102.086 185.161 103.986C189.861 105.786 194.161 108.486 198.061 112.086C201.961 115.686 205.161 120.136 207.661 125.436C210.161 130.736 211.411 136.786 211.411 143.586L168.211 158.286ZM182.761 145.986C182.761 139.386 181.411 134.036 178.711 129.936C176.111 125.836 173.111 122.636 169.711 120.336C166.311 118.036 163.061 116.486 159.961 115.686C156.961 114.786 155.011 114.236 154.111 114.036C153.311 117.836 152.911 121.236 152.911 124.236C152.911 125.936 152.911 127.686 152.911 129.486C152.911 131.186 153.161 132.886 153.661 134.586L182.761 145.986ZM361.073 106.686L313.223 187.536L288.623 143.286L262.373 187.536L230.423 130.236L218.873 120.036L246.473 99.1864L272.123 145.086L280.973 130.086L269.723 120.036L297.323 99.1864L322.973 145.086L336.023 123.036L322.223 106.686H361.073ZM408.289 86.1364H378.139V63.1864H408.289V86.1364ZM421.039 183.186H365.539L378.139 166.536V132.036L368.539 122.286L408.289 98.7364V166.536L421.039 183.186ZM490.512 183.186V138.936C490.512 136.436 489.962 134.086 488.862 131.886C487.862 129.586 486.412 127.636 484.512 126.036C482.712 124.336 480.562 122.986 478.062 121.986C475.562 120.986 472.862 120.486 469.962 120.486H469.812V166.536L482.562 183.186H427.062L439.662 166.536V124.686L430.512 115.536L457.962 99.1864L466.812 113.886L491.112 99.3364C495.512 100.236 499.512 101.886 503.112 104.286C506.812 106.586 509.962 109.336 512.562 112.536C515.162 115.736 517.162 119.286 518.562 123.186C520.062 127.086 520.812 131.136 520.812 135.336V166.536L533.562 183.186H490.512ZM605.562 187.086L595.662 170.286L567.612 187.086C560.012 181.186 554.312 174.236 550.512 166.236C546.712 158.236 544.812 150.236 544.812 142.236C544.812 136.736 545.662 131.486 547.362 126.486C549.062 121.486 551.712 117.086 555.312 113.286C558.912 109.486 563.462 106.486 568.962 104.286C574.562 101.986 581.212 100.836 588.912 100.836C589.712 100.836 590.512 100.886 591.312 100.986C592.112 100.986 592.912 100.986 593.712 100.986V81.3364L584.112 71.5864L623.862 48.0364V161.436L633.012 170.586L605.562 187.086ZM593.712 127.386L566.862 114.336C565.562 117.836 564.912 121.336 564.912 124.836C564.912 128.936 565.662 132.886 567.162 136.686C568.762 140.486 570.862 144.036 573.462 147.336C576.162 150.636 579.212 153.586 582.612 156.186C586.112 158.786 589.812 160.936 593.712 162.636V127.386Z" fill="#0C4682"/>
<path d="M85.95 172.05L47.25 112.95V151.35L60 168H4.5L17.1 151.35V64.65L4.5 48H60.6C67.4 48 73.55 49.05 79.05 51.15C84.55 53.15 89.25 55.85 93.15 59.25C97.05 62.65 100.05 66.55 102.15 70.95C104.25 75.35 105.3 79.85 105.3 84.45C105.3 90.75 103.3 96.6 99.3 102C95.4 107.4 89.35 111.75 81.15 115.05L99.3 142.95L115.35 154.5L85.95 172.05ZM76.05 96.3C76.05 92.4 75.3 88.65 73.8 85.05C72.3 81.35 70.25 78 67.65 75C65.05 72 62 69.5 58.5 67.5C55 65.4 51.25 64.05 47.25 63.45V99.45L72.3 109.65C73.6 107.55 74.55 105.4 75.15 103.2C75.75 100.9 76.05 98.6 76.05 96.3ZM161.483 143.1C170.083 151.2 180.783 156.55 193.583 159.15C189.483 162.65 185.083 165.35 180.383 167.25C175.683 169.05 170.633 169.95 165.233 169.95C159.333 169.95 153.833 168.85 148.733 166.65C143.733 164.45 139.333 161.45 135.533 157.65C131.833 153.85 128.883 149.4 126.683 144.3C124.583 139.2 123.533 133.75 123.533 127.95C123.533 122.15 124.583 116.7 126.683 111.6C128.883 106.5 131.833 102.05 135.533 98.25C139.333 94.45 143.733 91.45 148.733 89.25C153.833 87.05 159.333 85.95 165.233 85.95C169.433 85.95 173.833 86.9 178.433 88.8C183.133 90.6 187.433 93.3 191.333 96.9C195.233 100.5 198.433 104.95 200.933 110.25C203.433 115.55 204.683 121.6 204.683 128.4L161.483 143.1ZM176.033 130.8C176.033 124.2 174.683 118.85 171.983 114.75C169.383 110.65 166.383 107.45 162.983 105.15C159.583 102.85 156.333 101.3 153.233 100.5C150.233 99.6 148.283 99.05 147.383 98.85C146.583 102.65 146.183 106.05 146.183 109.05C146.183 110.75 146.183 112.5 146.183 114.3C146.183 116 146.433 117.7 146.933 119.4L176.033 130.8ZM354.345 91.5L306.495 172.35L281.895 128.1L255.645 172.35L223.695 115.05L212.145 104.85L239.745 84L265.395 129.9L274.245 114.9L262.995 104.85L290.595 84L316.245 129.9L329.295 107.85L315.495 91.5H354.345ZM401.561 70.95H371.411V48H401.561V70.95ZM414.311 168H358.811L371.411 151.35V116.85L361.811 107.1L401.561 83.55V151.35L414.311 168ZM483.784 168V123.75C483.784 121.25 483.234 118.9 482.134 116.7C481.134 114.4 479.684 112.45 477.784 110.85C475.984 109.15 473.834 107.8 471.334 106.8C468.834 105.8 466.134 105.3 463.234 105.3H463.084V151.35L475.834 168H420.334L432.934 151.35V109.5L423.784 100.35L451.234 84L460.084 98.7L484.384 84.15C488.784 85.05 492.784 86.7 496.384 89.1C500.084 91.4 503.234 94.15 505.834 97.35C508.434 100.55 510.434 104.1 511.834 108C513.334 111.9 514.084 115.95 514.084 120.15V151.35L526.834 168H483.784ZM598.834 171.9L588.934 155.1L560.884 171.9C553.284 166 547.584 159.05 543.784 151.05C539.984 143.05 538.084 135.05 538.084 127.05C538.084 121.55 538.934 116.3 540.634 111.3C542.334 106.3 544.984 101.9 548.584 98.1C552.184 94.3 556.734 91.3 562.234 89.1C567.834 86.8 574.484 85.65 582.184 85.65C582.984 85.65 583.784 85.7 584.584 85.8C585.384 85.8 586.184 85.8 586.984 85.8V66.15L577.384 56.4L617.134 32.85V146.25L626.284 155.4L598.834 171.9ZM586.984 112.2L560.134 99.15C558.834 102.65 558.184 106.15 558.184 109.65C558.184 113.75 558.934 117.7 560.434 121.5C562.034 125.3 564.134 128.85 566.734 132.15C569.434 135.45 572.484 138.4 575.884 141C579.384 143.6 583.084 145.75 586.984 147.45V112.2Z" fill="white"/>
</svg>
